<?xml version="1.0" encoding="iso-8859-1"?>
<!-- Uploaded to: SVG Repo, www.svgrepo.com, Generator: SVG Repo Mixer Tools -->
<svg version="1.1" id="Layer_1" xmlns="http://www.w3.org/2000/svg" xmlns:xlink="http://www.w3.org/1999/xlink" 
	 viewBox="0 0 512 512" xml:space="preserve">
<circle style="fill:#EA8953;" cx="256" cy="256" r="256"/>
<path style="opacity:0.1;enable-background:new    ;" d="M222.608,109.328v100.267c-5.76,0.48-10.347,5.28-10.347,11.147v20.267
	c-25.707,15.04-43.04,42.933-43.04,74.88c0,24.091,9.813,45.872,25.653,61.589l-0.011,0.005l126.16,126.16
	c88.453-23.163,158.192-92.453,182.053-180.619L289.381,109.328H222.608z"/>
<path style="fill:#64798A;" d="M299.733,250.981h-87.467v-30.224c0-6.192,5.04-11.237,11.237-11.237h64.987
	c6.197,0,11.243,5.045,11.243,11.237V250.981z M220.379,242.869h71.243v-22.112c0-1.723-1.403-3.125-3.131-3.125h-64.987
	c-1.723,0-3.125,1.403-3.125,3.125L220.379,242.869L220.379,242.869z"/>
<rect x="222.613" y="109.333" style="fill:#44C4A1;" width="66.768" height="108.299"/>
<g>
	<rect x="229.307" y="109.333" style="fill:#FFFFFF;" width="10.453" height="108.299"/>
	<rect x="272.267" y="109.333" style="fill:#FFFFFF;" width="10.453" height="108.299"/>
</g>
<circle style="fill:#FCD462;" cx="256" cy="315.893" r="86.784"/>
<g>
	<path style="fill:#DC8744;" d="M256,387.371c-39.419,0-71.493-32.075-71.493-71.493s32.075-71.488,71.493-71.488
		s71.488,32.075,71.488,71.488S295.419,387.371,256,387.371z M256,255.205c-33.456,0-60.677,27.221-60.677,60.677
		S222.544,376.56,256,376.56s60.677-27.221,60.677-60.677S289.456,255.205,256,255.205z"/>
	<path style="fill:#DC8744;" d="M239.563,270.667h32.869v90.432h-14.496v-76.848h-18.373L239.563,270.667L239.563,270.667z"/>
</g>
</svg>